<?xml version="1.0" encoding="UTF-8"?>
<svg id="Layer_2" data-name="Layer 2" xmlns="http://www.w3.org/2000/svg" viewBox="0 0 626.48 123.19">
  <defs>
    <style>
      .cls-1 {
        fill: #1f1f1f;
      }

      .cls-1, .cls-2 {
        fill-rule: evenodd;
      }

      .cls-2 {
        fill: #f57c14;
      }
    </style>
  </defs>
  <g id="Layer_1-2" data-name="Layer 1">
    <g>
      <path class="cls-1" d="M51.67,62.3C22.32,67.04,0,92.52,0,123.1h61.68c33.92,0,61.51-27.59,61.51-61.68h-51.67l-19.86.88Z"/>
      <path class="cls-2" d="M123.19.09h-61.51C27.59.09,0,28.21,0,62.3h51.67l19.86-.88C100.87,56.67,123.19,30.84,123.19.09Z"/>
      <path class="cls-2" d="M165.15,62.31c-1.2.05-2.41.17-3.59.4-28.46,5.47-49.88,30.53-49.88,60.49h61.68c33.92,0,61.51-27.59,61.51-61.68l-61.67.44-8.04.36Z"/>
      <path class="cls-1" d="M173.19,61.95l61.67-.44V0c-34.06,0-61.63,28.07-61.67,61.95Z"/>
      <g>
        <path class="cls-1" d="M328.96,26.07c-2.33-1.4-4.8-2.44-7.44-3.13-2.63-.68-5.79-1.15-9.47-1.41-.31-.04-.6-.08-.89-.1-.29-.02-.56-.03-.82-.03-.92,0-1.38.37-1.38,1.12,0,.44.25.73.76.89s1.2.27,2.07.36c1.71.22,3.51.47,5.39.76,1.89.29,3.73.71,5.53,1.28,1.8.57,3.43,1.4,4.9,2.5,1.47,1.1,2.63,2.54,3.49,4.34.85,1.8,1.28,4.06,1.28,6.78,0,3.03-.7,5.56-2.11,7.6-1.4,2.04-3.3,3.66-5.69,4.87-2.39,1.21-5.11,2.07-8.16,2.6-3.05.53-6.2.79-9.44.79-3.77.04-7.51-.16-11.22-.63-3.71-.46-6.99-1.04-9.84-1.74l1.84-23.16c1.01.75,2.21,1.55,3.62,2.4,1.4.86,3.31,1.63,5.72,2.34,2.41.7,5.59,1.25,9.54,1.65.22.04.43.07.63.07h.56c.48,0,.84-.07,1.09-.2.24-.13.36-.42.36-.85,0-.48-.21-.79-.63-.92-.42-.13-1.06-.26-1.94-.4-2.37-.26-4.73-.63-7.07-1.12-2.35-.48-4.49-1.23-6.41-2.24-1.93-1.01-3.48-2.41-4.64-4.21-1.16-1.8-1.74-4.14-1.74-7.04,0-4.12.98-7.4,2.93-9.84,1.95-2.43,4.59-4.19,7.93-5.26,3.33-1.07,7.06-1.61,11.19-1.61,3.46,0,7.08.32,10.86.95,3.77.64,7.5,1.5,11.19,2.6l-1.97,20Z"/>
        <path class="cls-1" d="M384.36,54.23h-21.32l-.66-6.05h-9.34l-.66,6.05h-21.32l13.03-50.66h27.24l13.03,50.66ZM355.94,22.32l-.72,6.32h5l-.72-6.32h-3.55Z"/>
        <path class="cls-1" d="M405.28,54.23h-19.54V3.56h23.09l4.41,18.42h.59l-.26-18.42h19.54v50.66h-21.32l-6.25-23.69h-.59l.33,23.69Z"/>
        <path class="cls-1" d="M456.27,54.23l-20.13-.07V3.56h20.73l-.26,11.38-.59,7.3h.59l5.59-18.69h21.32l-10.86,23.16,12.04,27.5h-23.09l-5-18.69h-.59l.26,18.69Z"/>
        <path class="cls-1" d="M507.92,34.36v2.7h20.13v17.17h-40.86V3.56h39.67v14.8h-18.95v2.7h17.17v13.29h-17.17Z"/>
        <path class="cls-1" d="M572.86,26.07c-2.33-1.4-4.8-2.44-7.44-3.13-2.63-.68-5.79-1.15-9.47-1.41-.31-.04-.6-.08-.89-.1-.29-.02-.56-.03-.82-.03-.92,0-1.38.37-1.38,1.12,0,.44.25.73.76.89s1.2.27,2.07.36c1.71.22,3.51.47,5.39.76,1.89.29,3.73.71,5.53,1.28,1.8.57,3.43,1.4,4.9,2.5,1.47,1.1,2.63,2.54,3.49,4.34.85,1.8,1.28,4.06,1.28,6.78,0,3.03-.7,5.56-2.11,7.6-1.4,2.04-3.3,3.66-5.69,4.87-2.39,1.21-5.11,2.07-8.16,2.6-3.05.53-6.2.79-9.44.79-3.77.04-7.51-.16-11.22-.63-3.71-.46-6.99-1.04-9.84-1.74l1.84-23.16c1.01.75,2.21,1.55,3.62,2.4,1.4.86,3.31,1.63,5.72,2.34,2.41.7,5.59,1.25,9.54,1.65.22.04.43.07.63.07h.56c.48,0,.84-.07,1.09-.2.24-.13.36-.42.36-.85,0-.48-.21-.79-.63-.92-.42-.13-1.06-.26-1.94-.4-2.37-.26-4.73-.63-7.07-1.12-2.35-.48-4.49-1.23-6.41-2.24-1.93-1.01-3.48-2.41-4.64-4.21-1.16-1.8-1.74-4.14-1.74-7.04,0-4.12.98-7.4,2.93-9.84,1.95-2.43,4.59-4.19,7.93-5.26,3.33-1.07,7.06-1.61,11.19-1.61,3.46,0,7.08.32,10.86.95,3.77.64,7.5,1.5,11.19,2.6l-1.97,20Z"/>
        <path class="cls-1" d="M605.17,17.78V3.56h21.32v50.66h-21.32v-16.32h-5.33v16.32h-21.32V3.56h21.32v14.21h5.33Z"/>
        <path class="cls-1" d="M286,120.55l.53-17.77c2.37.04,4.34.02,5.92-.07s2.76-.55,3.55-1.38c.79-.83,1.18-2.35,1.18-4.54v-27.44h21.32v31.78c0,3.86-.54,7.04-1.61,9.54-1.08,2.5-2.59,4.46-4.54,5.89-1.95,1.43-4.28,2.45-6.97,3.06-2.7.61-5.68.95-8.95,1.02-3.27.07-6.74.03-10.43-.1Z"/>
        <path class="cls-1" d="M371.27,120.02h-21.32l-.66-6.05h-9.34l-.66,6.05h-21.32l13.03-50.66h27.24l13.03,50.66ZM342.84,88.11l-.72,6.32h5l-.72-6.32h-3.55Z"/>
        <path class="cls-1" d="M393.44,120.09l-20.73-.07v-50.66h20.73v50.73Z"/>
        <path class="cls-1" d="M416.14,120.02h-19.54v-50.66h23.09l4.41,18.42h.59l-.26-18.42h19.54v50.66h-21.32l-6.25-23.69h-.59l.33,23.69Z"/>
      </g>
    </g>
  </g>
</svg>